<?xml version="1.0" encoding="UTF-8" standalone="no"?>
<svg
   xmlns:dc="http://purl.org/dc/elements/1.1/"
   xmlns:cc="http://creativecommons.org/ns#"
   xmlns:rdf="http://www.w3.org/1999/02/22-rdf-syntax-ns#"
   xmlns:svg="http://www.w3.org/2000/svg"
   xmlns="http://www.w3.org/2000/svg"
   xmlns:sodipodi="http://sodipodi.sourceforge.net/DTD/sodipodi-0.dtd"
   xmlns:inkscape="http://www.inkscape.org/namespaces/inkscape"
   id="Artwork"
   viewBox="0 0 266.79 243.84"
   version="1.1"
   sodipodi:docname="TF_White_Icon.svg"
   inkscape:version="1.0.1 (0767f8302a, 2020-10-17)">
  <metadata
     id="metadata945">
    <rdf:RDF>
      <cc:Work
         rdf:about="">
        <dc:format>image/svg+xml</dc:format>
        <dc:type
           rdf:resource="http://purl.org/dc/dcmitype/StillImage" />
      </cc:Work>
    </rdf:RDF>
  </metadata>
  <sodipodi:namedview
     pagecolor="#ffffff"
     bordercolor="#666666"
     borderopacity="1"
     objecttolerance="10"
     gridtolerance="10"
     guidetolerance="10"
     inkscape:pageopacity="0"
     inkscape:pageshadow="2"
     inkscape:window-width="1920"
     inkscape:window-height="948"
     id="namedview943"
     showgrid="false"
     inkscape:zoom="2.1243438"
     inkscape:cx="133.395"
     inkscape:cy="121.92"
     inkscape:window-x="0"
     inkscape:window-y="27"
     inkscape:window-maximized="1"
     inkscape:current-layer="Artwork" />
  <defs
     id="defs926">
    <style
       id="style918">.cls-1{fill:#fff;}.cls-2{clip-path:url(#clip-path);}.cls-3{clip-path:url(#clip-path-2);}</style>
    <clipPath
       id="clip-path">
      <polygon
         class="cls-1"
         points="200.76 83.27 136.29 46.43 136.29 197.41 162.05 182.45 162.05 139.98 181.5 151.23 181.39 122.18 162.05 111.13 162.05 94.26 200.85 116.68 200.76 83.27"
         id="polygon920" />
    </clipPath>
    <clipPath
       id="clip-path-2">
      <polygon
         class="cls-1"
         points="66.03 83.27 130.5 46.43 130.5 197.41 104.74 182.45 104.74 94.26 65.94 116.68 66.03 83.27"
         id="polygon923" />
    </clipPath>
  </defs>
  <title
     id="title928">WhiteWhite Icon</title>
  <polygon
     class="cls-1"
     points="200.76 83.27 136.29 46.43 136.29 197.41 162.05 182.45 162.05 139.98 181.5 151.23 181.39 122.18 162.05 111.13 162.05 94.26 200.85 116.68 200.76 83.27"
     id="polygon930"
     style="fill:#000000;fill-opacity:1" />
  <g
     class="cls-2"
     clip-path="url(#clip-path)"
     id="g934"
     style="fill:#000000;fill-opacity:1">
    <rect
       class="cls-1"
       x="60.08"
       y="45.88"
       width="158.31"
       height="151.72"
       id="rect932"
       style="fill:#000000;fill-opacity:1" />
  </g>
  <polygon
     class="cls-1"
     points="66.03 83.27 130.5 46.43 130.5 197.41 104.74 182.45 104.74 94.26 65.94 116.68 66.03 83.27"
     id="polygon936"
     style="fill:#000000;fill-opacity:1" />
  <g
     class="cls-3"
     clip-path="url(#clip-path-2)"
     id="g940"
     style="fill:#000000;fill-opacity:1">
    <rect
       class="cls-1"
       x="59"
       y="45.88"
       width="158.31"
       height="151.72"
       id="rect938"
       style="fill:#000000;fill-opacity:1" />
  </g>
</svg>
