<?xml version="1.0" encoding="UTF-8" standalone="no"?>
<!DOCTYPE svg PUBLIC "-//W3C//DTD SVG 20010904//EN" "http://www.w3.org/TR/2001/REC-SVG-20010904/DTD/svg10.dtd">
<svg version="1.0" xmlns="http://www.w3.org/2000/svg" width="801.000000pt" height="808.000000pt" viewBox="0 0 801.000000 808.000000" preserveAspectRatio="xMidYMid meet">
<metadata>
Created by potrace 1.16, written by Peter Selinger 2001-2019
</metadata>
<g transform="translate(0.000000,808.000000) scale(0.100000,-0.100000)" fill="#000000" stroke="none">
<path d="M2948 5757 l-967 -552 -1 -507 c0 -280 2 -508 4 -508 1 0 257 147 567 326 310 179 570 328 577 331 9 4 12 -263 12 -1313 l0 -1319 386 -223 c212 -123 387 -222 390 -220 2 3 3 1024 2 2271 l-3 2266 -967 -552z"/>
<path d="M4090 4040 c0 -1468 3 -2270 10 -2268 5 2 180 102 390 223 l380 220 0 633 c0 347 2 632 3 632 3 0 379 -216 535 -307 l42 -25 0 444 0 443 -290 165 -290 165 0 243 c0 133 2 242 5 242 3 0 262 -148 576 -330 314 -181 573 -330 575 -330 2 0 3 228 2 507 l-3 507 -950 544 c-522 298 -958 547 -967 553 -17 9 -18 -101 -18 -2261z"/>
</g>
</svg>